# AST/ASF file generated using VICON BodyLanguage
# -----------------------------------------------
:version 1.10
:name VICON
:units
  mass 1.0
  length 0.45
  angle deg
:documentation
   .ast/.asf automatically generated from VICON data using
   VICON BodyBuilder and BodyLanguage model FoxedUp or BRILLIANT.MOD
:root
   order TX TY TZ RX RY RZ
   axis XYZ
   position 0 0 0  
   orientation 0 0 0 
:bonedata
  begin
     id 1 
     name lhipjoint
     direction 0.561145 -0.797705 0.220866 
     length 2.46425 
     axis 0 0 0  XYZ
  end
  begin
     id 2 
     name lfemur
     direction 0.34202 -0.939693 0  
     length 7.95556  
     axis 0 0 20  XYZ
    dof rx ry rz
    limits (-160.0 20.0)
           (-70.0 70.0)
           (-60.0 70.0)
  end
  begin
     id 3 
     name ltibia
     direction 0.34202 -0.939693 0   
     length 7.9832   
     axis 0 0 20   XYZ
    dof rx
    limits (-10.0 170.0)
  end
  begin
     id 4 
     name lfoot
     direction 0.0723927 -0.198897 0.977343   
     length 2.23085   
     axis -90 7.62852e-016 20   XYZ
    dof rx rz
    limits (-45.0 90.0)
           (-70.0 20.0)
  end
  begin
     id 5 
     name ltoes
     direction 1.53826e-011 -4.21988e-011 1   
     length 1.12127   
     axis -90 7.62852e-016 20   XYZ
    dof rx
    limits (-90.0 20.0)
  end
  begin
     id 6 
     name rhipjoint
     direction -0.610499 -0.763299 0.21134   
     length 2.57533  
     axis 0 0 0  XYZ 
  end
  begin
     id 7 
     name rfemur
     direction -0.34202 -0.939693 0   
     length 8.65257   
     axis 0 0 -20   XYZ
    dof rx ry rz
    limits (-160.0 20.0)
           (-70.0 70.0)
           (-70.0 60.0)
  end
  begin
     id 8 
     name rtibia
     direction -0.342021 -0.939692 0   
     length 7.37807   
     axis 0 0 -20   XYZ
    dof rx
    limits (-10.0 170.0)
 end
 begin
     id 9 
     name rfoot
     direction -0.0239304 -0.0543852 0.998233   
     length 1.87018  
     axis -90 -7.62852e-016 -20   XYZ
    dof rx rz
    limits (-45.0 90.0)
           (-20.0 70.0)
  end
  begin
     id 10 
     name rtoes
     direction -1.53584e-011 -4.2242e-011 1   
     length 0.951568   
     axis -90 -7.62852e-016 -20   XYZ
    dof rx
    limits (-90.0 20.0)
  end
  begin
     id 11 
     name lowerback
     direction 0.00322089 0.999033 0.0438587   
     length 2.07568   
     axis 0 0 0   XYZ
    dof rx ry rz
    limits (-20.0 45.0)
           (-30.0 30.0)
           (-30.0 30.0)
  end
  begin
     id 12 
     name upperback
     direction -0.00321932 0.999732 -0.0229403   
     length 2.06253   
     axis 0 0 0   XYZ
    dof rx ry rz
    limits (-20.0 45.0)
           (-30.0 30.0)
           (-30.0 30.0)
  end
  begin
     id 13 
     name thorax
     direction -0.00537537 0.998955 -0.0453918   
     length 2.06975   
     axis 0 0 0   XYZ
    dof rx ry rz
    limits (-20.0 45.0)
           (-30.0 30.0)
           (-30.0 30.0)
  end
  begin
     id 14 
     name lowerneck
     direction -0.00013604 0.994111 0.108363   
     length 1.50836   
     axis 0 0 0   XYZ
    dof rx ry rz
    limits (-20.0 45.0)
           (-30.0 30.0)
           (-30.0 30.0)
  end
  begin
     id 15 
     name upperneck
     direction 0.0397262 0.983859 -0.174482   
     length 1.53037   
     axis 0 0 0   XYZ
    dof rx ry rz
    limits (-20.0 45.0)
           (-30.0 30.0)
           (-30.0 30.0)
  end
  begin
     id 16
     name head
     direction 0.0109991 0.997082 -0.0755378  
     length 1.56928  
     axis 0 0 0   XYZ
    dof rx ry rz
    limits (-20.0 45.0)
           (-30.0 30.0)
           (-30.0 30.0)
  end
  begin
     id 17 
     name lclavicle
     direction 0.964749 0.254 -0.068874  
     length 3.26503  
     axis 0 0 0   XYZ
    dof ry rz
    limits (-20.0 10.0)
           (0.0 20.0)
  end
  begin
     id 18 
     name lhumerus
     direction 1 -4.48941e-011 -2.05079e-027   
     length 5.68236   
     axis 180 -30 -90   XYZ
    dof rx ry rz
    limits (-60.0 90.0)
           (-90.0 90.0)
           (-90.0 90.0)
  end
  begin
     id 19
     name lradius
     direction 1 -4.48956e-011 6.2882e-027   
     length 3.17112   
     axis 180 -30 -90   XYZ
    dof rx
    limits (-10.0 170.0)
  end
  begin
     id 20
     name lwrist
     direction 1 -4.49014e-011 1.73219e-026   
     length 1.58556   
     axis -1.04724e-014 90 90   XYZ
    dof ry
    limits (-180.0 0.0)
 end
  begin
     id 21 
     name lhand
     direction 1 -4.49312e-011 3.46438e-026   
     length 0.632691   
     axis -2.21057e-014 90 90   XYZ
    dof rx rz
    limits (-90.0 90.0)
           (-45.0 45.0)
  end
  begin
     id 22 
     name lfingers
     direction 1 -4.48894e-011 6.92876e-026   
     length 0.510091   
     axis -4.42114e-014 90 90   XYZ
    dof rx
    limits (0.0 90.0)
  end
  begin
     id 23
     name lthumb
     direction 0.707107 -6.34705e-011 0.707107   
     length 0.732392   
     axis -90 45 2.85299e-015   XYZ
    dof rx rz
    limits (-45.0 45.0)
           (-45.0 45.0)
  end
  begin
     id 24 
     name rclavicle
     direction -0.954374 0.280496 -0.102435   
     length 3.25419  
     axis 0 0 0   XYZ 
    dof ry rz
    limits (-10.0 20.0)
           (-20.0 0.0)
  end
  begin
     id 25 
     name rhumerus
     direction -1 -4.48994e-011 -1.07204e-017  
     length 5.8712   
     axis 180 30 90   XYZ
    dof rx ry rz
    limits (-90.0 60.0)
           (-90.0 90.0)
           (-90.0 90.0)
  end
  begin
     id 26 
     name rradius
     direction -1 -4.48972e-011 5.89292e-027   
     length 3.37589   
     axis 180 30 90   XYZ
    dof rx
    limits (-10.0 170.0)
  end
  begin
     id 27 
     name rwrist
     direction -1 -4.48942e-011 1.73219e-026   
     length 1.68794   
     axis -1.04724e-014 -90 -90   XYZ
    dof ry
    limits (-180.0 0.0)
  end
  begin
     id 28
     name rhand
     direction -1 -4.48514e-011 3.46438e-026   
     length 0.603257   
     axis -2.21057e-014 -90 -90   XYZ
    dof rx rz
    limits (-90.0 90.0)
           (-45.0 45.0)
  end
  begin
     id 29
     name rfingers
     direction -1 -4.50028e-011 6.92876e-026   
     length 0.486362   
     axis -4.42114e-014 -90 -90   XYZ
    dof rx
    limits (0.0 90.0)
  end
  begin
     id 30
     name rthumb
     direction -0.707107 -6.34926e-011 0.707107   
     length 0.698321   
     axis -90 -45 -2.85299e-015   XYZ
    dof rx rz
    limits (-45.0 45.0)
           (-45.0 45.0)
  end
:hierarchy
  begin
    root lhipjoint rhipjoint lowerback
    lhipjoint lfemur
    lfemur ltibia
    ltibia lfoot
    lfoot ltoes
    rhipjoint rfemur
    rfemur rtibia
    rtibia rfoot
    rfoot rtoes
    lowerback upperback
    upperback thorax
    thorax lowerneck lclavicle rclavicle
    lowerneck upperneck
    upperneck head
    lclavicle lhumerus
    lhumerus lradius
    lradius lwrist
    lwrist lhand lthumb
    lhand lfingers
    rclavicle rhumerus
    rhumerus rradius
    rradius rwrist
    rwrist rhand rthumb
    rhand rfingers
  end

#!OML:ASF I:\Segmentation\Patient Classification 1\Patient 1\Session 1\Patient1.ASF
:FULLY-SPECIFIED
:DEGREES
450
root 30.077 18.2231 4.23451 -169.307 31.0344 -174.493
lowerback -6.71241 1.97329 3.22181
upperback 3.26244 2.27736 1.8644
thorax 7.24387 1.25114 0.447556
lowerneck -16.988 1.34049 2.87588
upperneck 28.3943 2.77755 -1.85728
head 12.2542 1.70864 -0.67863
rclavicle 1.03418e-013 1.76918e-014
rhumerus -16.4249 5.89821 -69.8651
rradius 57.3988
rwrist 7.01183
rhand -21.2413 30.0149
rfingers 7.12502
rthumb 5.14139 0.0972801
lclavicle 1.03418e-013 1.76918e-014
lhumerus -29.5527 -4.10861 91.1341
lradius 29.5871
lwrist 10.3435
lhand -19.4784 31.5231
lfingers 7.12502
lthumb 6.84337 61.3925
rfemur -1.23593 0.323431 26.0891
rtibia 19.7848
rfoot -8.65665 7.41677
rtoes 22.9726
lfemur -31.3686 9.11405 -23.8246
ltibia 12.1446
lfoot -28.9426 20.795
ltoes 11.7096
451
root 30.1298 18.2058 4.14084 -169.311 31.2295 -174.358
lowerback -6.67557 2.03308 3.15032
upperback 3.2509 2.36792 1.79406
thorax 7.2118 1.29248 0.423507
lowerneck -17.0078 1.40401 2.87858
upperneck 28.4527 2.85866 -1.7978
head 12.2831 1.75486 -0.643241
rclavicle -7.51406e-014 2.18663e-014
rhumerus -16.8688 6.36416 -70.2292
rradius 57.8759
rwrist 6.96683
rhand -21.2893 30.2793
rfingers 7.12502
rthumb 5.095 0.360544
lclavicle -7.51406e-014 2.18663e-014
lhumerus -29.655 -4.09827 90.9211
lradius 29.4643
lwrist 10.2562
lhand -19.2879 31.4267
lfingers 7.12502
lthumb 7.02725 61.29
rfemur -0.852098 0.278726 26.1267
rtibia 19.9312
rfoot -8.45415 7.51331
rtoes 22.6079
lfemur -31.5148 9.83326 -23.8531
ltibia 12.9873
lfoot -28.3913 20.4519
ltoes 12.7807
452
root 30.1844 18.1938 4.0436 -169.346 31.452 -174.281
lowerback -6.68603 2.09051 3.01551
upperback 3.26274 2.45906 1.70809
thorax 7.22978 1.33167 0.421172
lowerneck -17.0694 1.47434 2.89321
upperneck 28.5142 2.94483 -1.74771
head 12.3224 1.80198 -0.612317
rclavicle 6.72886e-014 -1.41137e-014
rhumerus -17.2998 6.76944 -70.6164
rradius 58.2365
rwrist 7.00065
rhand -21.3175 30.6358
rfingers 7.12502
rthumb 5.06777 0.716415
lclavicle 6.72886e-014 -1.41137e-014
lhumerus -29.7081 -4.09165 90.6938
lradius 29.2877
lwrist 10.1884
lhand -19.0882 31.3222
lfingers 7.12502
lthumb 7.22001 61.179
rfemur -0.495171 0.332394 26.1054
rtibia 20.1457
rfoot -8.31665 7.57747
rtoes 22.1821
lfemur -31.6322 10.7314 -24.0318
ltibia 13.7881
lfoot -27.8011 20.1188
ltoes 14.3329
453
root 30.2397 18.1887 3.9432 -169.426 31.6949 -174.294
lowerback -6.73854 2.13398 2.78562
upperback 3.29238 2.53892 1.60785
thorax 7.28684 1.36109 0.457866
lowerneck -17.1438 1.56038 2.91436
upperneck 28.5571 3.0516 -1.71142
head 12.3579 1.85571 -0.584548
rclavicle -3.93718e-014 -6.28657e-014
rhumerus -17.7192 7.1412 -71.0339
rradius 58.5106
rwrist 7.07501
rhand -21.3006 30.9567
rfingers 7.12502
rthumb 5.08407 1.03773
lclavicle -3.93718e-014 -6.28657e-014
lhumerus -29.7362 -4.04657 90.454
lradius 29.093
lwrist 10.1184
lhand -18.8925 31.2496
lfingers 7.12502
lthumb 7.40893 61.0999
rfemur -0.151813 0.476503 25.994
rtibia 20.399
rfoot -8.20435 7.59635
rtoes 21.6406
lfemur -31.746 11.7409 -24.3623
ltibia 14.5767
lfoot -27.1628 20.0542
ltoes 15.9566
454
root 30.2943 18.1892 3.84084 -169.536 31.9339 -174.406
lowerback -6.81497 2.15791 2.47088
upperback 3.31353 2.60101 1.48655
thorax 7.34497 1.37756 0.51825
lowerneck -17.1845 1.66382 2.95085
upperneck 28.5711 3.18392 -1.69469
head 12.3762 1.9196 -0.563249
rclavicle -2.46493e-014 -7.25564e-015
rhumerus -18.1658 7.48484 -71.4944
rradius 58.7265
rwrist 7.16295
rhand -21.2308 31.1809
rfingers 7.12502
rthumb 5.1515 1.26356
lclavicle -2.46493e-014 -7.25564e-015
lhumerus -29.7873 -3.97098 90.198
lradius 28.9186
lwrist 10.0286
lhand -18.6898 31.2415
lfingers 7.12502
lthumb 7.60461 61.0848
rfemur 0.175383 0.702686 25.7942
rtibia 20.6566
rfoot -8.10336 7.5436
rtoes 21.0123
lfemur -31.8948 12.7364 -24.7957
ltibia 15.3889
lfoot -26.4529 20.419
ltoes 17.065
455
root 30.348 18.1924 3.73769 -169.639 32.1393 -174.594
lowerback -6.91339 2.16122 2.10739
upperback 3.30697 2.64141 1.33892
thorax 7.38454 1.38084 0.575437
lowerneck -17.1698 1.78207 3.00149
upperneck 28.5452 3.33714 -1.69116
head 12.3683 1.99266 -0.546908
rclavicle -1.07437e-013 1.75179e-014
rhumerus -18.6622 7.77699 -72.0106
rradius 58.882
rwrist 7.27614
rhand -21.1501 31.3448
rfingers 7.12502
rthumb 5.22941 1.4293
lclavicle -1.07437e-013 1.75179e-014
lhumerus -29.8874 -3.90376 89.9254
lradius 28.7824
lwrist 9.91849
lhand -18.4697 31.3147
lfingers 7.12502
lthumb 7.81704 61.1502
rfemur 0.465458 0.990595 25.5379
rtibia 20.9016
rfoot -8.01806 7.40075
rtoes 20.3857
lfemur -32.1088 13.5935 -25.2558
ltibia 16.2465
lfoot -25.6924 21.0904
ltoes 17.3731
456
root 30.4011 18.1971 3.63422 -169.718 32.29 -174.832
lowerback -7.03997 2.14267 1.724
upperback 3.27772 2.65594 1.17087
thorax 7.4159 1.37056 0.619437
lowerneck -17.1158 1.91087 3.05443
upperneck 28.4673 3.50371 -1.69611
head 12.3321 2.06991 -0.533094
rclavicle -3.05507e-014 1.38155e-014
rhumerus -19.2043 8.00509 -72.5771
rradius 58.9654
rwrist 7.41903
rhand -21.0944 31.492
rfingers 7.12502
rthumb 5.28321 1.57787
lclavicle -3.05507e-014 1.38155e-014
lhumerus -30.0147 -3.85825 89.6422
lradius 28.6633
lwrist 9.79725
lhand -18.2341 31.4695
lfingers 7.12502
lthumb 8.04438 61.2964
rfemur 0.703232 1.32123 25.2595
rtibia 21.1394
rfoot -7.96904 7.15525
rtoes 19.8201
lfemur -32.3913 14.2647 -25.6938
ltibia 17.1599
lfoot -24.822 21.8006
ltoes 16.9243
457
root 30.4531 18.2027 3.53019 -169.775 32.3719 -175.079
lowerback -7.18021 2.101 1.36082
upperback 3.24384 2.63937 0.998146
thorax 7.45143 1.34636 0.643585
lowerneck -17.0616 2.04433 3.0994
upperneck 28.3439 3.67623 -1.7135
head 12.2782 2.14544 -0.52242
rclavicle -1.43324e-013 1.59028e-014
rhumerus -19.7852 8.17995 -73.1742
rradius 58.978
rwrist 7.5751
rhand -21.0547 31.6218
rfingers 7.12502
rthumb 5.32149 1.70866
lclavicle -1.43324e-013 1.59028e-014
lhumerus -30.1167 -3.79411 89.3479
lradius 28.5082
lwrist 9.65359
lhand -17.9715 31.6695
lfingers 7.12502
lthumb 8.29782 61.4865
rfemur 0.900915 1.64997 24.9944
rtibia 21.3881
rfoot -7.94118 6.82089
rtoes 19.3825
lfemur -32.7145 14.7973 -26.0926
ltibia 18.1263
lfoot -23.767 22.2182
ltoes 16.1991
458
root 30.5033 18.2079 3.42527 -169.82 32.3749 -175.283
lowerback -7.30231 2.03311 1.06068
upperback 3.22214 2.58298 0.845655
thorax 7.49178 1.30594 0.64793
lowerneck -17.0442 2.18053 3.11219
upperneck 28.1992 3.85846 -1.74091
head 12.2235 2.21851 -0.508599
rclavicle -8.84592e-014 9.93923e-015
rhumerus -20.3979 8.33008 -73.7765
rradius 58.931
rwrist 7.72801
rhand -21.009 31.7084
rfingers 7.12502
rthumb 5.36567 1.79631
lclavicle -8.84592e-014 9.93923e-015
lhumerus -30.1565 -3.6544 89.0473
lradius 28.281
lwrist 9.46913
lhand -17.673 31.8662
lfingers 7.12502
lthumb 8.58592 61.6716
rfemur 1.09382 1.93176 24.7815
rtibia 21.6615
rfoot -7.89406 6.43222
rtoes 19.1554
lfemur -33.0311 15.2537 -26.4311
ltibia 19.133
lfoot -22.6224 22.0886
ltoes 15.8817
459
root 30.5512 18.2122 3.31926 -169.872 32.2981 -175.417
lowerback -7.37497 1.94028 0.841862
upperback 3.221 2.48566 0.729834
thorax 7.52795 1.24938 0.638156
lowerneck -17.068 2.31711 3.07561
upperneck 28.0523 4.05314 -1.77251
head 12.1759 2.29007 -0.485695
rclavicle -5.9039e-014 9.74045e-015
rhumerus -21.0371 8.459 -74.3647
rradius 58.8281
rwrist 7.87765
rhand -20.9333 31.7268
rfingers 7.12502
rthumb 5.43879 1.81658
lclavicle -5.9039e-014 9.74045e-015
lhumerus -30.1348 -3.43105 88.7506
lradius 27.9869
lwrist 9.23703
lhand -17.3619 32.0472
lfingers 7.12502
lthumb 8.8861 61.8401
rfemur 1.32198 2.14819 24.6396
rtibia 21.9591
rfoot -7.81265 6.02365
rtoes 19.134
lfemur -33.2899 15.6348 -26.6773
ltibia 20.1652
lfoot -21.5773 21.5044
ltoes 16.1059
460
root 30.597 18.2159 3.21191 -169.946 32.1516 -175.485
lowerback -7.38199 1.83567 0.704548
upperback 3.23475 2.36479 0.640739
thorax 7.54478 1.18537 0.605365
lowerneck -17.103 2.44507 3.01125
upperneck 27.9046 4.24403 -1.80805
head 12.1298 2.35651 -0.460044
rclavicle 3.926e-015 2.5842e-015
rhumerus -21.717 8.51816 -74.9404
rradius 58.6695
rwrist 8.0339
rhand -20.8136 31.6702
rfingers 7.12502
rthumb 5.55428 1.76297
lclavicle 3.926e-015 2.5842e-015
lhumerus -30.0768 -3.19407 88.4599
lradius 27.651
lwrist 8.97057
lhand -17.0802 32.2307
lfingers 7.12502
lthumb 9.15798 62.0118
rfemur 1.60575 2.28069 24.5573
rtibia 22.2692
rfoot -7.69011 5.62554
rtoes 19.2347
lfemur -33.4559 15.9026 -26.8139
ltibia 21.1991
lfoot -20.8089 20.8286
ltoes 16.2972
461
root 30.6418 18.2187 3.10297 -170.037 31.9545 -175.509
lowerback -7.33902 1.73553 0.629065
upperback 3.24861 2.24405 0.560691
thorax 7.5351 1.12465 0.545701
lowerneck -17.1205 2.55675 2.95043
upperneck 27.7549 4.41509 -1.85335
head 12.079 2.41434 -0.441968
rclavicle -2.59911e-014 -9.14409e-015
rhumerus -22.4633 8.45895 -75.5127
rradius 58.4635
rwrist 8.19563
rhand -20.6677 31.5564
rfingers 7.12502
rthumb 5.69517 1.65289
lclavicle -2.59911e-014 -9.14409e-015
lhumerus -30.0097 -3.04365 88.1861
lradius 27.2982
lwrist 8.71139
lhand -16.8711 32.4345
lfingers 7.12502
lthumb 9.35968 62.2067
rfemur 1.92914 2.32413 24.5126
rtibia 22.5825
rfoot -7.51974 5.24383
rtoes 19.3385
lfemur -33.5246 16.0366 -26.8527
ltibia 22.1964
lfoot -20.4474 20.3611
ltoes 15.6957
462
root 30.6867 18.2211 2.99234 -170.126 31.7295 -175.506
lowerback -7.28281 1.64883 0.58572
upperback 3.25085 2.13778 0.484898
thorax 7.5063 1.07255 0.473926
lowerneck -17.1157 2.65221 2.90987
upperneck 27.6143 4.56684 -1.91905
head 12.0279 2.46478 -0.438064
rclavicle -4.27884e-014 -5.56597e-015
rhumerus -23.289 8.27516 -76.0775
rradius 58.2196
rwrist 8.34706
rhand -20.5016 31.4174
rfingers 7.12502
rthumb 5.85555 1.51834
lclavicle -4.27884e-014 -5.56597e-015
lhumerus -29.943 -3.02195 87.9469
lradius 26.9379
lwrist 8.48441
lhand -16.7478 32.6606
lfingers 7.12502
lthumb 9.47869 62.4274
rfemur 2.25254 2.29893 24.4902
rtibia 22.9054
rfoot -7.2999 4.8543
rtoes 19.2875
lfemur -33.5078 16.0454 -26.8181
ltibia 23.1116
lfoot -20.4738 20.1686
ltoes 13.9952
